<svg width="60" height="60" viewBox="0 0 60 60" fill="none" xmlns="http://www.w3.org/2000/svg">
<circle cx="30" cy="30" r="30" fill="#1B1B1B"/>
<path d="M22.405 18.9167C23.47 18.9167 24.455 19 25.355 19.2467C26.1717 19.3967 26.9512 19.7047 27.65 20.1533C28.3067 20.565 28.7983 21.1433 29.125 21.885C29.4533 22.6267 29.6167 23.535 29.6167 24.5233C29.6167 25.6783 29.3717 26.6667 28.7983 27.4083C28.3067 28.1517 27.4867 28.81 26.5033 29.305C27.8967 29.7183 28.9617 30.46 29.6167 31.4483C30.2733 32.4383 30.6833 33.675 30.6833 35.0767C30.6833 36.2317 30.4367 37.22 30.0267 38.045C29.6167 38.87 28.9617 39.6117 28.2233 40.1067C27.4213 40.6373 26.5347 41.0273 25.6017 41.26C24.6183 41.5083 23.635 41.6733 22.6517 41.6733H11.6667V18.9167H22.405ZM21.7483 28.15C22.65 28.15 23.3883 27.9033 23.9617 27.4917C24.535 27.08 24.7817 26.3367 24.7817 25.43C24.7817 24.935 24.6983 24.44 24.535 24.1117C24.3717 23.7817 24.125 23.5333 23.7983 23.2867C23.47 23.1217 23.1417 22.9567 22.7317 22.875C22.3217 22.7917 21.9133 22.7917 21.42 22.7917H16.6667V28.1517H21.75L21.7483 28.15ZM21.995 37.88C22.4867 37.88 22.9783 37.7967 23.3883 37.715C23.8023 37.6363 24.1938 37.4673 24.535 37.22C24.869 36.9787 25.1484 36.6698 25.355 36.3133C25.5183 35.9017 25.6833 35.4067 25.6833 34.83C25.6833 33.675 25.355 32.85 24.7 32.2733C24.0433 31.7783 23.1417 31.5317 22.0767 31.5317H16.6667V37.8817H21.995V37.88ZM37.815 37.7967C38.47 38.4567 39.4533 38.7867 40.765 38.7867C41.6667 38.7867 42.4867 38.54 43.1417 38.1283C43.7983 37.6333 44.2083 37.1383 44.3717 36.6433H48.3883C47.7317 38.6217 46.7483 40.0233 45.4383 40.93C44.125 41.755 42.5683 42.25 40.6833 42.25C39.4773 42.2536 38.2814 42.0297 37.1583 41.59C36.1478 41.2109 35.2467 40.588 34.535 39.7767C33.7738 39.0176 33.2112 38.0829 32.8967 37.055C32.4867 35.9833 32.3217 34.83 32.3217 33.51C32.3217 32.2733 32.4867 31.12 32.8967 30.0467C33.2909 29.0135 33.8741 28.0628 34.6167 27.2433C35.355 26.5017 36.2567 25.8433 37.24 25.43C38.3345 24.9901 39.5037 24.766 40.6833 24.77C42.0767 24.77 43.3067 25.0183 44.3717 25.595C45.4383 26.1717 46.2567 26.8317 46.9133 27.8217C47.5832 28.7725 48.0823 29.8328 48.3883 30.955C48.5517 32.1083 48.6333 33.2633 48.5517 34.5817H36.6667C36.6667 35.9017 37.1583 37.1383 37.815 37.7983V37.7967ZM42.9783 29.14C42.405 28.5633 41.5033 28.2333 40.4367 28.2333C39.8112 28.2239 39.1927 28.3651 38.6333 28.645C38.1417 28.8933 37.815 29.2233 37.4867 29.5533C37.1849 29.8721 36.9853 30.2737 36.9133 30.7067C36.83 31.12 36.7483 31.4483 36.7483 31.7783H44.125C43.9617 30.5417 43.5517 29.7183 42.9783 29.14ZM35.765 20.4833H44.945V22.71H35.7667V20.4833H35.765Z" fill="url(#paint0_linear_2_40)"/>
<defs>
<linearGradient id="paint0_linear_2_40" x1="37.4933" y1="8.85917" x2="37.4933" y2="58.2079" gradientUnits="userSpaceOnUse">
<stop offset="0.204168" stop-color="#E33B26"/>
<stop offset="0.986227" stop-color="#AD1A07"/>
</linearGradient>
</defs>
</svg>
