<svg width="60" height="60" viewBox="0 0 60 60" fill="none" xmlns="http://www.w3.org/2000/svg">
<circle cx="30" cy="30" r="30" fill="#1B1B1B"/>
<path d="M43.3333 40H40V25.4167L30 31.6667L20 25.4167V40H16.6667V20H18.6667L30 27.0833L41.3333 20H43.3333M43.3333 16.6667H16.6667C14.8167 16.6667 13.3333 18.15 13.3333 20V40C13.3333 40.884 13.6845 41.7319 14.3097 42.357C14.9348 42.9821 15.7826 43.3333 16.6667 43.3333H43.3333C44.2174 43.3333 45.0652 42.9821 45.6904 42.357C46.3155 41.7319 46.6667 40.884 46.6667 40V20C46.6667 19.1159 46.3155 18.2681 45.6904 17.643C45.0652 17.0178 44.2174 16.6667 43.3333 16.6667V16.6667Z" fill="url(#paint0_linear_2_48)"/>
<defs>
<linearGradient id="paint0_linear_2_48" x1="36.6529" y1="5.17241" x2="36.6529" y2="61.5709" gradientUnits="userSpaceOnUse">
<stop offset="0.204168" stop-color="#E33B26"/>
<stop offset="0.986227" stop-color="#AD1A07"/>
</linearGradient>
</defs>
</svg>
