<svg width="60" height="60" viewBox="0 0 60 60" fill="none" xmlns="http://www.w3.org/2000/svg">
<circle cx="30" cy="30" r="30" fill="#1B1B1B"/>
<path d="M30 13.3333C27.8113 13.3333 25.644 13.7644 23.6219 14.602C21.5998 15.4396 19.7625 16.6673 18.2149 18.2149C15.0893 21.3405 13.3333 25.5797 13.3333 30C13.3333 37.3667 18.1167 43.6167 24.7333 45.8333C25.5667 45.9667 25.8333 45.45 25.8333 45V42.1833C21.2167 43.1833 20.2333 39.95 20.2333 39.95C19.4667 38.0167 18.3833 37.5 18.3833 37.5C16.8667 36.4667 18.5 36.5 18.5 36.5C20.1667 36.6167 21.05 38.2167 21.05 38.2167C22.5 40.75 24.95 40 25.9 39.6C26.05 38.5167 26.4833 37.7833 26.95 37.3667C23.25 36.95 19.3667 35.5167 19.3667 29.1667C19.3667 27.3167 20 25.8333 21.0833 24.65C20.9167 24.2333 20.3333 22.5 21.25 20.25C21.25 20.25 22.65 19.8 25.8333 21.95C27.15 21.5833 28.5833 21.4 30 21.4C31.4167 21.4 32.85 21.5833 34.1667 21.95C37.35 19.8 38.75 20.25 38.75 20.25C39.6667 22.5 39.0833 24.2333 38.9167 24.65C40 25.8333 40.6333 27.3167 40.6333 29.1667C40.6333 35.5333 36.7333 36.9333 33.0167 37.35C33.6167 37.8667 34.1667 38.8833 34.1667 40.4333V45C34.1667 45.45 34.4333 45.9833 35.2833 45.8333C41.9 43.6 46.6667 37.3667 46.6667 30C46.6667 27.8113 46.2356 25.644 45.398 23.622C44.5604 21.5999 43.3328 19.7625 41.7851 18.2149C40.2375 16.6673 38.4001 15.4396 36.3781 14.602C34.356 13.7644 32.1887 13.3333 30 13.3333Z" fill="#E33B26"/>
</svg>
