<svg width="60" height="60" viewBox="0 0 60 60" fill="none" xmlns="http://www.w3.org/2000/svg">
<circle cx="30" cy="30" r="30" fill="#1B1B1B"/>
<path d="M23 13.3333H37C42.3333 13.3333 46.6667 17.6667 46.6667 23V37C46.6667 39.5638 45.6482 42.0225 43.8354 43.8354C42.0225 45.6482 39.5638 46.6667 37 46.6667H23C17.6667 46.6667 13.3333 42.3333 13.3333 37V23C13.3333 20.4363 14.3518 17.9775 16.1646 16.1646C17.9775 14.3518 20.4363 13.3333 23 13.3333M22.6667 16.6667C21.0754 16.6667 19.5493 17.2988 18.424 18.424C17.2988 19.5493 16.6667 21.0754 16.6667 22.6667V37.3333C16.6667 40.65 19.35 43.3333 22.6667 43.3333H37.3333C38.9246 43.3333 40.4508 42.7012 41.576 41.576C42.7012 40.4508 43.3333 38.9246 43.3333 37.3333V22.6667C43.3333 19.35 40.65 16.6667 37.3333 16.6667H22.6667ZM38.75 19.1667C39.3025 19.1667 39.8324 19.3862 40.2232 19.7769C40.6139 20.1676 40.8333 20.6975 40.8333 21.25C40.8333 21.8025 40.6139 22.3324 40.2232 22.7231C39.8324 23.1138 39.3025 23.3333 38.75 23.3333C38.1975 23.3333 37.6676 23.1138 37.2769 22.7231C36.8862 22.3324 36.6667 21.8025 36.6667 21.25C36.6667 20.6975 36.8862 20.1676 37.2769 19.7769C37.6676 19.3862 38.1975 19.1667 38.75 19.1667ZM30 21.6667C32.2101 21.6667 34.3298 22.5447 35.8926 24.1075C37.4554 25.6703 38.3333 27.7899 38.3333 30C38.3333 32.2101 37.4554 34.3298 35.8926 35.8926C34.3298 37.4554 32.2101 38.3333 30 38.3333C27.7899 38.3333 25.6703 37.4554 24.1075 35.8926C22.5447 34.3298 21.6667 32.2101 21.6667 30C21.6667 27.7899 22.5447 25.6703 24.1075 24.1075C25.6703 22.5447 27.7899 21.6667 30 21.6667M30 25C28.6739 25 27.4022 25.5268 26.4645 26.4645C25.5268 27.4022 25 28.6739 25 30C25 31.3261 25.5268 32.5979 26.4645 33.5355C27.4022 34.4732 28.6739 35 30 35C31.3261 35 32.5979 34.4732 33.5355 33.5355C34.4732 32.5979 35 31.3261 35 30C35 28.6739 34.4732 27.4022 33.5355 26.4645C32.5979 25.5268 31.3261 25 30 25Z" fill="url(#paint0_linear_2_44)"/>
<defs>
<linearGradient id="paint0_linear_2_44" x1="36.6529" y1="-1.03447" x2="36.653" y2="69.4636" gradientUnits="userSpaceOnUse">
<stop offset="0.204168" stop-color="#E33B26"/>
<stop offset="0.986227" stop-color="#AD1A07"/>
</linearGradient>
</defs>
</svg>
