<svg width="60" height="60" viewBox="0 0 60 60" fill="none" xmlns="http://www.w3.org/2000/svg">
<circle cx="30" cy="30" r="30" fill="#1B1B1B"/>
<path d="M41.6667 15C42.5507 15 43.3986 15.3512 44.0237 15.9763C44.6488 16.6014 45 17.4493 45 18.3333V41.6667C45 42.5507 44.6488 43.3986 44.0237 44.0237C43.3986 44.6488 42.5507 45 41.6667 45H18.3333C17.4493 45 16.6014 44.6488 15.9763 44.0237C15.3512 43.3986 15 42.5507 15 41.6667V18.3333C15 17.4493 15.3512 16.6014 15.9763 15.9763C16.6014 15.3512 17.4493 15 18.3333 15H41.6667ZM40.8333 40.8333V32C40.8333 30.559 40.2609 29.177 39.2419 28.1581C38.223 27.1391 36.841 26.5667 35.4 26.5667C33.9833 26.5667 32.3333 27.4333 31.5333 28.7333V26.8833H26.8833V40.8333H31.5333V32.6167C31.5333 31.3333 32.5667 30.2833 33.85 30.2833C34.4688 30.2833 35.0623 30.5292 35.4999 30.9668C35.9375 31.4043 36.1833 31.9978 36.1833 32.6167V40.8333H40.8333ZM21.4667 24.2667C22.2093 24.2667 22.9215 23.9717 23.4466 23.4466C23.9717 22.9215 24.2667 22.2093 24.2667 21.4667C24.2667 19.9167 23.0167 18.65 21.4667 18.65C20.7196 18.65 20.0032 18.9468 19.475 19.475C18.9468 20.0032 18.65 20.7196 18.65 21.4667C18.65 23.0167 19.9167 24.2667 21.4667 24.2667ZM23.7833 40.8333V26.8833H19.1667V40.8333H23.7833Z" fill="url(#paint0_linear_2_26)"/>
<defs>
<linearGradient id="paint0_linear_2_26" x1="35.9876" y1="2.06897" x2="35.9877" y2="65.5172" gradientUnits="userSpaceOnUse">
<stop offset="0.204168" stop-color="#E33B26"/>
<stop offset="0.986227" stop-color="#AD1A07"/>
</linearGradient>
</defs>
</svg>
