<svg width="60" height="60" viewBox="0 0 60 60" fill="none" xmlns="http://www.w3.org/2000/svg">
<circle cx="30" cy="30" r="30" fill="#1B1B1B"/>
<path d="M41.75 18.1833C40.222 16.6399 38.402 15.4161 36.3961 14.5834C34.3902 13.7507 32.2385 13.3258 30.0667 13.3333C20.9667 13.3333 13.55 20.75 13.55 29.85C13.55 32.7667 14.3167 35.6 15.75 38.1L13.4167 46.6667L22.1667 44.3667C24.5834 45.6833 27.3 46.3833 30.0667 46.3833C39.1667 46.3833 46.5834 38.9667 46.5834 29.8667C46.5834 25.45 44.8667 21.3 41.75 18.1833ZM30.0667 43.5833C27.6 43.5833 25.1834 42.9167 23.0667 41.6667L22.5667 41.3667L17.3667 42.7333L18.75 37.6667L18.4167 37.15C17.0463 34.9616 16.3186 32.4321 16.3167 29.85C16.3167 22.2833 22.4834 16.1167 30.05 16.1167C33.7167 16.1167 37.1667 17.55 39.75 20.15C41.0292 21.4233 42.0429 22.9378 42.7323 24.6057C43.4218 26.2736 43.7734 28.0618 43.7667 29.8667C43.8 37.4333 37.6334 43.5833 30.0667 43.5833ZM37.6 33.3167C37.1834 33.1167 35.15 32.1167 34.7834 31.9667C34.4 31.8333 34.1334 31.7667 33.85 32.1667C33.5667 32.5833 32.7834 33.5167 32.55 33.7833C32.3167 34.0667 32.0667 34.1 31.65 33.8833C31.2334 33.6833 29.9 33.2333 28.3334 31.8333C27.1 30.7333 26.2834 29.3833 26.0334 28.9667C25.8 28.55 26 28.3333 26.2167 28.1167C26.4 27.9333 26.6334 27.6333 26.8334 27.4C27.0334 27.1667 27.1167 26.9833 27.25 26.7167C27.3834 26.4333 27.3167 26.2 27.2167 26C27.1167 25.8 26.2834 23.7667 25.95 22.9333C25.6167 22.1333 25.2667 22.2333 25.0167 22.2167H24.2167C23.9334 22.2167 23.5 22.3167 23.1167 22.7333C22.75 23.15 21.6834 24.15 21.6834 26.1833C21.6834 28.2167 23.1667 30.1833 23.3667 30.45C23.5667 30.7333 26.2834 34.9 30.4167 36.6833C31.4 37.1167 32.1667 37.3667 32.7667 37.55C33.75 37.8667 34.65 37.8167 35.3667 37.7167C36.1667 37.6 37.8167 36.7167 38.15 35.75C38.5 34.7833 38.5 33.9667 38.3834 33.7833C38.2667 33.6 38.0167 33.5167 37.6 33.3167Z" fill="url(#paint0_linear_2_52)"/>
<defs>
<linearGradient id="paint0_linear_2_52" x1="36.6196" y1="-1.03463" x2="36.6197" y2="69.4637" gradientUnits="userSpaceOnUse">
<stop offset="0.204168" stop-color="#E33B26"/>
<stop offset="0.986227" stop-color="#AD1A07"/>
</linearGradient>
</defs>
</svg>
